<?xml version="1.0" standalone="no"?><!DOCTYPE svg PUBLIC "-//W3C//DTD SVG 1.1//EN" "http://www.w3.org/Graphics/SVG/1.1/DTD/svg11.dtd"><svg t="1689770380125" class="icon" viewBox="0 0 1024 1024" version="1.1" xmlns="http://www.w3.org/2000/svg" p-id="2000" xmlns:xlink="http://www.w3.org/1999/xlink" width="200" height="200"><path d="M738.5088 298.5984c132.8128 0 240.4352 107.6736 240.4352 240.4352 0 79.4624-38.5536 149.8624-97.9456 193.6384l2.816 80.7424c0.2048 6.2976-6.5536 10.3936-12.032 7.2192l-81.2032-46.8992a239.8208 239.8208 0 0 1-52.1216 5.7344c-132.8128 0-240.4352-107.6736-240.4352-240.4352 0.0512-132.7616 107.6736-240.4352 240.4864-240.4352z" fill="#80DDEA" p-id="2001"></path><path d="M883.8656 813.4656l-2.8672-80.7424a240.82432 240.82432 0 0 0 88.4224-126.72c-31.0784-132.2496-117.1968-243.2-232.96-307.3024-131.84 1.1264-238.3872 108.288-238.3872 240.384 0 132.8128 107.6736 240.4352 240.4352 240.4352 17.92 0 35.328-1.9968 52.1216-5.7344l81.2032 46.8992c5.4784 3.1232 12.2368-0.9728 12.032-7.2192z" fill="#69D4E7" p-id="2002"></path><path d="M442.1632 534.1696c0-116.2752 67.0208-216.8832 164.5056-265.4208-58.2656-66.6624-143.872-108.8-239.36-108.8-175.5648 0-317.9008 142.336-317.9008 317.9008 0 105.0112 50.944 198.0928 129.4848 256l-3.7376 106.752c-0.3072 8.3456 8.704 13.7216 15.872 9.5744l107.3152-62.0032c22.2208 4.9152 45.2608 7.5776 68.9152 7.5776 61.1328 0 118.2208-17.3056 166.656-47.2064-56.4736-54.016-91.7504-130.048-91.7504-214.3744z" fill="#80DDEA" p-id="2003"></path><path d="M58.5216 553.4208c17.92 73.4208 61.3888 136.8576 120.4224 180.3776l-3.7376 106.752c-0.3072 8.3456 8.704 13.7216 15.872 9.5744l107.3152-62.0032c22.2208 4.9152 45.2608 7.5776 68.9152 7.5776 61.1328 0 118.2208-17.3056 166.656-47.2064-56.5248-53.9648-91.8528-129.9968-91.8528-214.3232 0-116.2752 67.0208-216.8832 164.5056-265.4208a313.25184 313.25184 0 0 0-22.2208-22.9376 480.09216 480.09216 0 0 0-78.2336-6.5024c-205.9776 0-381.44 130.9184-447.6416 314.112z" fill="#69D4E7" p-id="2004"></path><path d="M883.8656 813.4656l-2.8672-80.7424a240.82944 240.82944 0 0 0 70.1952-81.6128c-58.7264-154.7264-195.7888-270.7456-362.8032-299.8272-55.0912 44.0832-90.368 111.7696-90.368 187.8016 0 132.8128 107.6736 240.4352 240.4352 240.4352 17.92 0 35.328-1.9968 52.1216-5.7344l81.2032 46.8992c5.5296 3.1232 12.288-0.9728 12.0832-7.2192z" fill="#56CDE3" p-id="2005"></path><path d="M506.2144 344.064c-187.8016 0-350.1568 108.8-427.5712 266.752a319.9488 319.9488 0 0 0 100.2496 123.0336l-3.7376 106.752c-0.3072 8.3456 8.704 13.7216 15.872 9.5744l107.3152-62.0032c22.2208 4.9152 45.2608 7.5776 68.9152 7.5776 61.1328 0 118.2208-17.3056 166.656-47.2064-56.5248-53.9648-91.8528-129.9968-91.8528-214.3232 0-72.3456 25.9584-138.5472 68.9664-190.0032-1.536-0.0512-3.1744-0.1536-4.8128-0.1536z" fill="#56CDE3" p-id="2006"></path><path d="M883.8656 813.4656l-2.8672-80.7424c15.3088-11.264 29.184-24.32 41.4208-38.8608-79.8208-143.5648-231.7312-241.4592-406.8352-244.8384a239.37024 239.37024 0 0 0-17.5104 90.0608c0 132.8128 107.6736 240.4352 240.4352 240.4352 17.92 0 35.328-1.9968 52.1216-5.7344l81.2032 46.8992c5.4784 3.1232 12.2368-0.9728 12.032-7.2192zM442.1632 534.1696c0-28.6208 4.096-56.2688 11.6224-82.432-144.128 15.7696-268.8 95.8976-344.8832 210.9952 19.5072 27.1872 43.0592 51.2512 69.9904 71.1168l-3.7376 106.752c-0.3072 8.3456 8.704 13.7216 15.872 9.5744l107.3152-62.0032c22.2208 4.9152 45.2608 7.5776 68.9152 7.5776 61.1328 0 118.2208-17.3056 166.656-47.2064-56.4736-54.016-91.7504-130.048-91.7504-214.3744z" fill="#22C6E0" p-id="2007"></path><path d="M883.8656 813.4656l-2.7136-76.9536c-87.1424-111.3088-222.6176-182.9376-374.9376-182.9376-2.56 0-5.12 0.1536-7.68 0.2048 7.5776 125.952 112.0768 225.792 239.9744 225.792 17.92 0 35.328-1.9968 52.1216-5.7344l81.2032 46.8992c5.4784 3.072 12.2368-1.024 12.032-7.2704zM443.1872 557.824c-115.0976 15.2576-217.2416 71.5264-291.1744 153.8048 8.5504 7.8848 17.5104 15.3088 26.88 22.2208l-3.7376 106.752c-0.3072 8.3456 8.704 13.7216 15.872 9.5744l107.3152-62.0032c22.2208 4.9152 45.2608 7.5776 68.9152 7.5776 61.1328 0 118.2208-17.3056 166.656-47.2064-51.0976-48.896-84.7872-115.9168-90.7264-190.72z" fill="#0EBEDB" p-id="2008"></path><path d="M151.9104 520.9088A40.92928 40.92928 0 0 1 112.64 481.8432C106.0864 338.944 220.416 263.4752 225.28 260.3008c18.9952-12.288 44.3392-6.8096 56.6272 12.1856a40.94976 40.94976 0 0 1-12.032 56.5248c-3.584 2.3552-79.7696 54.2208-75.4176 149.0944 1.024 22.5792-16.4352 41.7792-39.0656 42.8032-1.1264 0.0512-2.304 0.0512-3.4816 0z" fill="#FFFFFF" p-id="2009"></path></svg>